<mxfile host="app.diagrams.net" modified="2024-07-18T02:11:01.222Z" agent="Mozilla/5.0 (Windows NT 10.0; Win64; x64) AppleWebKit/537.36 (KHTML, like Gecko) Chrome/126.0.0.0 Safari/537.36" etag="cAsCy3badfG_6WNAllzf" version="24.6.5" type="github">
  <diagram name="第 1 页" id="AiXbg7PUsbcyE4KA23Ez">
    <mxGraphModel dx="1078" dy="748" grid="1" gridSize="10" guides="1" tooltips="1" connect="1" arrows="1" fold="1" page="1" pageScale="1" pageWidth="827" pageHeight="1169" math="0" shadow="0">
      <root>
        <mxCell id="0" />
        <mxCell id="1" parent="0" />
        <mxCell id="t6NZkP5YLvOFnfPRe7XK-15" value="" style="whiteSpace=wrap;html=1;aspect=fixed;" vertex="1" parent="1">
          <mxGeometry x="275" y="220" width="276" height="276" as="geometry" />
        </mxCell>
        <mxCell id="t6NZkP5YLvOFnfPRe7XK-7" value="" style="whiteSpace=wrap;html=1;aspect=fixed;" vertex="1" parent="1">
          <mxGeometry x="255" y="570" width="260" height="260" as="geometry" />
        </mxCell>
        <mxCell id="t6NZkP5YLvOFnfPRe7XK-1" value="" style="image;aspect=fixed;html=1;points=[];align=center;fontSize=12;image=img/lib/azure2/databases/Azure_Database_MySQL_Server.svg;" vertex="1" parent="1">
          <mxGeometry x="361" y="610" width="48" height="64" as="geometry" />
        </mxCell>
        <mxCell id="t6NZkP5YLvOFnfPRe7XK-2" value="" style="image;aspect=fixed;html=1;points=[];align=center;fontSize=12;image=img/lib/azure2/databases/Azure_Database_MySQL_Server.svg;" vertex="1" parent="1">
          <mxGeometry x="281" y="730" width="48" height="64" as="geometry" />
        </mxCell>
        <mxCell id="t6NZkP5YLvOFnfPRe7XK-3" value="" style="image;aspect=fixed;html=1;points=[];align=center;fontSize=12;image=img/lib/azure2/databases/Azure_Database_MySQL_Server.svg;" vertex="1" parent="1">
          <mxGeometry x="441" y="730" width="48" height="64" as="geometry" />
        </mxCell>
        <mxCell id="t6NZkP5YLvOFnfPRe7XK-4" value="" style="endArrow=classic;startArrow=classic;html=1;rounded=0;exitX=-0.021;exitY=0.25;exitDx=0;exitDy=0;exitPerimeter=0;" edge="1" parent="1" source="t6NZkP5YLvOFnfPRe7XK-3" target="t6NZkP5YLvOFnfPRe7XK-1">
          <mxGeometry width="50" height="50" relative="1" as="geometry">
            <mxPoint x="391" y="740" as="sourcePoint" />
            <mxPoint x="431" y="670" as="targetPoint" />
          </mxGeometry>
        </mxCell>
        <mxCell id="t6NZkP5YLvOFnfPRe7XK-11" value="同步复制" style="edgeLabel;html=1;align=center;verticalAlign=middle;resizable=0;points=[];" vertex="1" connectable="0" parent="t6NZkP5YLvOFnfPRe7XK-4">
          <mxGeometry x="0.0327" relative="1" as="geometry">
            <mxPoint as="offset" />
          </mxGeometry>
        </mxCell>
        <mxCell id="t6NZkP5YLvOFnfPRe7XK-5" value="" style="endArrow=classic;startArrow=classic;html=1;rounded=0;exitX=0.958;exitY=0.313;exitDx=0;exitDy=0;exitPerimeter=0;" edge="1" parent="1" source="t6NZkP5YLvOFnfPRe7XK-2" target="t6NZkP5YLvOFnfPRe7XK-1">
          <mxGeometry width="50" height="50" relative="1" as="geometry">
            <mxPoint x="311" y="720" as="sourcePoint" />
            <mxPoint x="361" y="670" as="targetPoint" />
          </mxGeometry>
        </mxCell>
        <mxCell id="t6NZkP5YLvOFnfPRe7XK-8" value="同步复制" style="edgeLabel;html=1;align=center;verticalAlign=middle;resizable=0;points=[];" vertex="1" connectable="0" parent="t6NZkP5YLvOFnfPRe7XK-5">
          <mxGeometry x="0.0477" relative="1" as="geometry">
            <mxPoint as="offset" />
          </mxGeometry>
        </mxCell>
        <mxCell id="t6NZkP5YLvOFnfPRe7XK-6" value="" style="endArrow=classic;startArrow=classic;html=1;rounded=0;" edge="1" parent="1" source="t6NZkP5YLvOFnfPRe7XK-2" target="t6NZkP5YLvOFnfPRe7XK-3">
          <mxGeometry width="50" height="50" relative="1" as="geometry">
            <mxPoint x="511" y="810" as="sourcePoint" />
            <mxPoint x="441" y="760" as="targetPoint" />
          </mxGeometry>
        </mxCell>
        <mxCell id="t6NZkP5YLvOFnfPRe7XK-9" value="&lt;span style=&quot;color: rgba(0, 0, 0, 0); font-family: monospace; font-size: 0px; text-align: start; background-color: rgb(251, 251, 251);&quot;&gt;%3CmxGraphModel%3E%3Croot%3E%3CmxCell%20id%3D%220%22%2F%3E%3CmxCell%20id%3D%221%22%20parent%3D%220%22%2F%3E%3CmxCell%20id%3D%222%22%20value%3D%22%E5%90%8C%E6%AD%A5%E5%A4%8D%E5%88%B6%22%20style%3D%22edgeLabel%3Bhtml%3D1%3Balign%3Dcenter%3BverticalAlign%3Dmiddle%3Bresizable%3D0%3Bpoints%3D%5B%5D%3B%22%20vertex%3D%221%22%20connectable%3D%220%22%20parent%3D%221%22%3E%3CmxGeometry%20x%3D%22247.27436113422164%22%20y%3D%22310.38706939374924%22%20as%3D%22geometry%22%2F%3E%3C%2FmxCell%3E%3C%2Froot%3E%3C%2FmxGraphModel%3E&lt;/span&gt;" style="edgeLabel;html=1;align=center;verticalAlign=middle;resizable=0;points=[];" vertex="1" connectable="0" parent="t6NZkP5YLvOFnfPRe7XK-6">
          <mxGeometry x="-0.1071" y="2" relative="1" as="geometry">
            <mxPoint as="offset" />
          </mxGeometry>
        </mxCell>
        <mxCell id="t6NZkP5YLvOFnfPRe7XK-10" value="同步复制" style="edgeLabel;html=1;align=center;verticalAlign=middle;resizable=0;points=[];" vertex="1" connectable="0" parent="t6NZkP5YLvOFnfPRe7XK-6">
          <mxGeometry y="-1" relative="1" as="geometry">
            <mxPoint as="offset" />
          </mxGeometry>
        </mxCell>
        <mxCell id="t6NZkP5YLvOFnfPRe7XK-12" value="后端服务器" style="aspect=fixed;sketch=0;html=1;dashed=0;whitespace=wrap;verticalLabelPosition=bottom;verticalAlign=top;fillColor=#2875E2;strokeColor=#ffffff;points=[[0.005,0.63,0],[0.1,0.2,0],[0.9,0.2,0],[0.5,0,0],[0.995,0.63,0],[0.72,0.99,0],[0.5,1,0],[0.28,0.99,0]];shape=mxgraph.kubernetes.icon2;prIcon=api" vertex="1" parent="1">
          <mxGeometry x="145" y="250" width="50" height="48" as="geometry" />
        </mxCell>
        <mxCell id="t6NZkP5YLvOFnfPRe7XK-13" value="mysqlruoter1" style="verticalLabelPosition=bottom;sketch=0;aspect=fixed;html=1;verticalAlign=top;strokeColor=none;align=center;outlineConnect=0;shape=mxgraph.citrix.proxy_server;" vertex="1" parent="1">
          <mxGeometry x="305" y="370" width="76.5" height="90" as="geometry" />
        </mxCell>
        <mxCell id="t6NZkP5YLvOFnfPRe7XK-14" value="mysqlruoter2" style="verticalLabelPosition=bottom;sketch=0;aspect=fixed;html=1;verticalAlign=top;strokeColor=none;align=center;outlineConnect=0;shape=mxgraph.citrix.proxy_server;" vertex="1" parent="1">
          <mxGeometry x="426.75" y="370" width="76.5" height="90" as="geometry" />
        </mxCell>
        <mxCell id="t6NZkP5YLvOFnfPRe7XK-17" value="" style="endArrow=classic;html=1;rounded=0;" edge="1" parent="1" source="t6NZkP5YLvOFnfPRe7XK-13" target="t6NZkP5YLvOFnfPRe7XK-1">
          <mxGeometry width="50" height="50" relative="1" as="geometry">
            <mxPoint x="525" y="520" as="sourcePoint" />
            <mxPoint x="575" y="470" as="targetPoint" />
          </mxGeometry>
        </mxCell>
        <mxCell id="t6NZkP5YLvOFnfPRe7XK-18" value="监控告警服务器" style="sketch=0;aspect=fixed;pointerEvents=1;shadow=0;dashed=0;html=1;strokeColor=none;labelPosition=center;verticalLabelPosition=bottom;verticalAlign=top;align=center;fillColor=#00188D;shape=mxgraph.mscae.enterprise.server_generic" vertex="1" parent="1">
          <mxGeometry x="625" y="470" width="48" height="100" as="geometry" />
        </mxCell>
        <mxCell id="t6NZkP5YLvOFnfPRe7XK-19" value="" style="endArrow=classic;html=1;rounded=0;" edge="1" parent="1" source="t6NZkP5YLvOFnfPRe7XK-13" target="t6NZkP5YLvOFnfPRe7XK-18">
          <mxGeometry width="50" height="50" relative="1" as="geometry">
            <mxPoint x="195" y="520" as="sourcePoint" />
            <mxPoint x="245" y="470" as="targetPoint" />
          </mxGeometry>
        </mxCell>
        <mxCell id="t6NZkP5YLvOFnfPRe7XK-20" value="" style="endArrow=classic;html=1;rounded=0;" edge="1" parent="1" source="t6NZkP5YLvOFnfPRe7XK-14" target="t6NZkP5YLvOFnfPRe7XK-18">
          <mxGeometry width="50" height="50" relative="1" as="geometry">
            <mxPoint x="455" y="560" as="sourcePoint" />
            <mxPoint x="505" y="510" as="targetPoint" />
          </mxGeometry>
        </mxCell>
        <mxCell id="t6NZkP5YLvOFnfPRe7XK-21" value="" style="endArrow=classic;html=1;rounded=0;" edge="1" parent="1" source="t6NZkP5YLvOFnfPRe7XK-1" target="t6NZkP5YLvOFnfPRe7XK-18">
          <mxGeometry width="50" height="50" relative="1" as="geometry">
            <mxPoint x="205" y="550" as="sourcePoint" />
            <mxPoint x="255" y="500" as="targetPoint" />
          </mxGeometry>
        </mxCell>
        <mxCell id="t6NZkP5YLvOFnfPRe7XK-22" value="" style="endArrow=classic;html=1;rounded=0;" edge="1" parent="1" source="t6NZkP5YLvOFnfPRe7XK-2" target="t6NZkP5YLvOFnfPRe7XK-18">
          <mxGeometry width="50" height="50" relative="1" as="geometry">
            <mxPoint x="205" y="600" as="sourcePoint" />
            <mxPoint x="255" y="550" as="targetPoint" />
          </mxGeometry>
        </mxCell>
        <mxCell id="t6NZkP5YLvOFnfPRe7XK-23" value="" style="endArrow=classic;html=1;rounded=0;" edge="1" parent="1" source="t6NZkP5YLvOFnfPRe7XK-3" target="t6NZkP5YLvOFnfPRe7XK-18">
          <mxGeometry width="50" height="50" relative="1" as="geometry">
            <mxPoint x="575" y="760" as="sourcePoint" />
            <mxPoint x="625" y="710" as="targetPoint" />
          </mxGeometry>
        </mxCell>
        <mxCell id="t6NZkP5YLvOFnfPRe7XK-24" value="虚拟IP" style="shape=mxgraph.cisco.servers.server_with_router;html=1;pointerEvents=1;dashed=0;fillColor=#036897;strokeColor=#ffffff;strokeWidth=2;verticalLabelPosition=bottom;verticalAlign=top;align=center;outlineConnect=0;" vertex="1" parent="1">
          <mxGeometry x="435" y="242" width="38" height="64" as="geometry" />
        </mxCell>
        <mxCell id="t6NZkP5YLvOFnfPRe7XK-26" value="" style="endArrow=classic;html=1;rounded=0;" edge="1" parent="1" source="t6NZkP5YLvOFnfPRe7XK-12" target="t6NZkP5YLvOFnfPRe7XK-24">
          <mxGeometry width="50" height="50" relative="1" as="geometry">
            <mxPoint x="215" y="280" as="sourcePoint" />
            <mxPoint x="575" y="470" as="targetPoint" />
          </mxGeometry>
        </mxCell>
        <mxCell id="t6NZkP5YLvOFnfPRe7XK-28" value="" style="endArrow=classic;html=1;rounded=0;" edge="1" parent="1" source="t6NZkP5YLvOFnfPRe7XK-24">
          <mxGeometry width="50" height="50" relative="1" as="geometry">
            <mxPoint x="426.75000000000006" y="305.9996162528217" as="sourcePoint" />
            <mxPoint x="370.34574468085106" y="377.81" as="targetPoint" />
          </mxGeometry>
        </mxCell>
        <mxCell id="t6NZkP5YLvOFnfPRe7XK-29" value="" style="endArrow=classic;html=1;rounded=0;dashed=1;" edge="1" parent="1" source="t6NZkP5YLvOFnfPRe7XK-24" target="t6NZkP5YLvOFnfPRe7XK-14">
          <mxGeometry width="50" height="50" relative="1" as="geometry">
            <mxPoint x="495" y="550" as="sourcePoint" />
            <mxPoint x="545" y="500" as="targetPoint" />
          </mxGeometry>
        </mxCell>
        <mxCell id="t6NZkP5YLvOFnfPRe7XK-30" value="" style="endArrow=classic;html=1;rounded=0;dashed=1;" edge="1" parent="1" source="t6NZkP5YLvOFnfPRe7XK-14" target="t6NZkP5YLvOFnfPRe7XK-1">
          <mxGeometry width="50" height="50" relative="1" as="geometry">
            <mxPoint x="495" y="550" as="sourcePoint" />
            <mxPoint x="545" y="500" as="targetPoint" />
          </mxGeometry>
        </mxCell>
        <mxCell id="t6NZkP5YLvOFnfPRe7XK-31" value="数据库备份存储" style="shape=image;html=1;verticalAlign=top;verticalLabelPosition=bottom;labelBackgroundColor=#ffffff;imageAspect=0;aspect=fixed;image=https://cdn1.iconfinder.com/data/icons/Futurosoft%20Icons%200.5.2/128x128/devices/nfs_mount.png" vertex="1" parent="1">
          <mxGeometry x="615" y="728" width="68" height="68" as="geometry" />
        </mxCell>
        <mxCell id="t6NZkP5YLvOFnfPRe7XK-32" value="" style="endArrow=classic;html=1;rounded=0;" edge="1" parent="1" source="t6NZkP5YLvOFnfPRe7XK-3" target="t6NZkP5YLvOFnfPRe7XK-31">
          <mxGeometry width="50" height="50" relative="1" as="geometry">
            <mxPoint x="495" y="720" as="sourcePoint" />
            <mxPoint x="545" y="670" as="targetPoint" />
          </mxGeometry>
        </mxCell>
        <mxCell id="t6NZkP5YLvOFnfPRe7XK-33" value="" style="endArrow=classic;html=1;rounded=0;entryX=0.5;entryY=1;entryDx=0;entryDy=0;entryPerimeter=0;" edge="1" parent="1" source="t6NZkP5YLvOFnfPRe7XK-31" target="t6NZkP5YLvOFnfPRe7XK-18">
          <mxGeometry width="50" height="50" relative="1" as="geometry">
            <mxPoint x="605" y="710" as="sourcePoint" />
            <mxPoint x="655" y="660" as="targetPoint" />
          </mxGeometry>
        </mxCell>
        <mxCell id="t6NZkP5YLvOFnfPRe7XK-34" value="CPU一般服务器用至强即可&lt;div&gt;内存32GB以上&lt;/div&gt;" style="rounded=0;whiteSpace=wrap;html=1;" vertex="1" parent="1">
          <mxGeometry x="50" y="385" width="160" height="45" as="geometry" />
        </mxCell>
        <mxCell id="t6NZkP5YLvOFnfPRe7XK-35" value="CPU一般服务器用至强即可&lt;div&gt;内存2T以上&lt;/div&gt;&lt;div&gt;磁盘SSD最好，机械硬盘也可以&lt;/div&gt;" style="rounded=0;whiteSpace=wrap;html=1;" vertex="1" parent="1">
          <mxGeometry x="30" y="617" width="200" height="50" as="geometry" />
        </mxCell>
      </root>
    </mxGraphModel>
  </diagram>
</mxfile>
